<svg width="760" height="760" viewBox="0 0 760 760" fill="none" xmlns="http://www.w3.org/2000/svg">
<path d="M636.74 179C633.695 182.456 632.016 186.904 632.02 191.51C632.19 202.05 633.48 212.57 633.59 223.09C633.83 232.91 630.89 242.09 627.32 251.09C626.14 253.57 624.85 256.01 623.56 258.44L619.79 257.68C618.263 257.366 616.906 256.498 615.979 255.244C615.053 253.99 614.623 252.438 614.772 250.886C614.921 249.334 615.638 247.892 616.786 246.837C617.934 245.782 619.431 245.188 620.99 245.17L622.37 245.32L619.3 219.55C618.813 214.041 617.175 208.696 614.491 203.86C611.807 199.025 608.138 194.807 603.72 191.48C602.223 190.346 600.646 189.323 599 188.42V279.9H620.05C621.594 288.295 626.18 295.825 632.93 301.05C634.509 302.144 635.822 303.579 636.77 305.25C637.711 303.577 639.021 302.141 640.6 301.05C647.337 295.831 651.921 288.318 653.48 279.94H674.48V188.46C672.833 189.361 671.255 190.384 669.76 191.52C665.339 194.843 661.666 199.06 658.982 203.897C656.298 208.733 654.662 214.08 654.18 219.59L651.16 245.37L652.54 245.22C654.1 245.236 655.599 245.828 656.748 246.882C657.898 247.936 658.617 249.379 658.767 250.931C658.917 252.484 658.488 254.037 657.562 255.292C656.635 256.547 655.278 257.416 653.75 257.73L649.97 258.49C648.68 256.06 647.39 253.63 646.21 251.14C642.64 242.14 639.7 232.93 639.94 223.14C640.05 212.59 641.34 202.08 641.51 191.56C641.51 186.955 639.832 182.507 636.79 179.05L636.74 179ZM605.27 201.64C609.452 206.554 612.101 212.586 612.89 218.99L615.4 240.24C613.785 241.049 612.361 242.193 611.225 243.597C610.088 245.001 609.265 246.632 608.81 248.38H605.25V201.65L605.27 201.64ZM668.21 201.64V248.37H664.65C664.195 246.621 663.372 244.988 662.236 243.583C661.099 242.177 659.676 241.031 658.06 240.22L660.58 218.97C661.374 212.569 664.019 206.539 668.19 201.62L668.21 201.64ZM636.74 244.37C638.411 249.863 640.73 255.137 643.65 260.08C640.93 260.907 638.522 262.534 636.74 264.75C634.957 262.535 632.55 260.908 629.83 260.08C632.75 255.137 635.07 249.863 636.74 244.37ZM605.27 254.7H608.83C609.388 256.839 610.496 258.794 612.043 260.373C613.59 261.952 615.523 263.099 617.65 263.7L620.65 264.39C619.819 267.403 619.398 270.514 619.4 273.64H605.26V254.71L605.27 254.7ZM664.66 254.7H668.22V273.65H654.06C654.06 270.525 653.64 267.413 652.81 264.4L655.81 263.71C657.938 263.112 659.871 261.966 661.417 260.386C662.963 258.807 664.067 256.85 664.62 254.71L664.66 254.7ZM626.83 265.85C628.707 266.117 630.425 267.054 631.667 268.487C632.909 269.92 633.592 271.754 633.59 273.65H625.72C625.724 271.011 626.098 268.385 626.83 265.85V265.85ZM646.65 265.85C647.375 268.387 647.745 271.012 647.75 273.65H639.89C639.888 271.754 640.571 269.92 641.813 268.487C643.055 267.054 644.772 266.117 646.65 265.85V265.85ZM626.48 279.97H633.63V293.26C630.103 289.548 627.634 284.959 626.48 279.97V279.97ZM639.93 279.97H647.08C645.936 284.963 643.466 289.554 639.93 293.26V279.97Z" fill="#FFD500"/>
<path d="M276.13 365.72H245.05V318.47H221.75V436.27H245.05V389.02H276.13V436.27H299.44V389.02V365.72V318.47H276.13V365.72Z" fill="white"/>
<path d="M123 318.47V341.77V365.72V389.02V412.97V434.37V436.27H199.2V412.97H146.06V389.02H199.2V365.72H146.06V341.77H199.2V318.47H146.06H123Z" fill="white"/>
<path d="M322 318.48V341.79V365.73V389.04V412.98V434.38V436.28H398.2V412.98H345.06V389.04H398.2V365.73H345.06V341.79H398.2V318.48H345.06H322Z" fill="white"/>
<path d="M444 318.47H420.69V436.27H444V318.47Z" fill="white"/>
<path d="M467.31 282.56H444V305.87H467.31V282.56Z" fill="white"/>
<path d="M421.07 282.56H397.76V305.87H421.07V282.56Z" fill="white"/>
<path d="M616.06 318.54C615.266 318.456 614.468 318.413 613.67 318.41H588.67C582.488 318.41 576.559 320.866 572.187 325.237C567.816 329.609 565.36 335.538 565.36 341.72V341.72V350.53C565.359 350.568 565.365 350.605 565.378 350.64C565.392 350.676 565.412 350.708 565.438 350.735C565.465 350.762 565.496 350.783 565.531 350.798C565.565 350.813 565.602 350.82 565.64 350.82H587.75C587.827 350.82 587.901 350.79 587.955 350.735C588.01 350.681 588.04 350.607 588.04 350.53V345.37C588.04 344.669 588.318 343.997 588.813 343.5C589.307 343.003 589.979 342.723 590.68 342.72H611.13C611.826 342.72 612.493 342.996 612.986 343.487C613.479 343.978 613.757 344.644 613.76 345.34V366.86C613.757 366.935 613.726 367.007 613.672 367.059C613.618 367.111 613.545 367.14 613.47 367.14H588.96C582.704 367.14 576.703 369.626 572.279 374.049C567.855 378.473 565.37 384.474 565.37 390.73V412.96C565.37 419.088 567.783 424.969 572.088 429.331C576.393 433.692 582.243 436.181 588.37 436.26H636.75C636.825 436.258 636.896 436.226 636.949 436.172C637.001 436.118 637.03 436.045 637.03 435.97V341.72C637.029 335.945 634.883 330.375 631.009 326.092C627.134 321.809 621.807 319.118 616.06 318.54ZM613.75 408.89C613.75 409.704 613.427 410.485 612.851 411.061C612.275 411.637 611.494 411.96 610.68 411.96H591.75C591.347 411.961 590.947 411.883 590.574 411.729C590.201 411.575 589.862 411.349 589.576 411.064C589.291 410.779 589.065 410.44 588.911 410.067C588.757 409.693 588.679 409.294 588.68 408.89V394.42C588.681 394.018 588.762 393.621 588.917 393.25C589.072 392.879 589.298 392.543 589.583 392.259C589.868 391.976 590.207 391.752 590.578 391.599C590.95 391.447 591.348 391.369 591.75 391.37H610.65C611.053 391.37 611.452 391.45 611.825 391.604C612.197 391.758 612.536 391.984 612.821 392.269C613.106 392.554 613.332 392.893 613.486 393.265C613.641 393.638 613.72 394.037 613.72 394.44L613.75 408.89Z" fill="white"/>
<path d="M538.18 413.3V318.6H537.75V318.42H475.64L468.2 412.86V413.3H458.28V436.37H474.5V436.25H514.91V436.37H554.43V413.27H538.18V413.3ZM514.87 412.86H491.25L497.05 341.86H514.87V412.86Z" fill="white"/>
</svg>
