<svg width="760" height="760" viewBox="0 0 760 760" fill="none" xmlns="http://www.w3.org/2000/svg">
<path d="M632.76 180C629.708 183.453 628.022 187.902 628.02 192.51C628.2 203.05 629.48 213.57 629.6 224.09C629.83 233.91 626.9 243.09 623.33 252.09C622.14 254.57 620.85 257.01 619.57 259.44L615.79 258.68C614.263 258.366 612.906 257.498 611.98 256.244C611.053 254.99 610.623 253.438 610.772 251.886C610.921 250.334 611.638 248.892 612.786 247.837C613.934 246.782 615.431 246.188 616.99 246.17L618.37 246.32L615.3 220.55C614.815 215.041 613.178 209.695 610.494 204.859C607.81 200.023 604.139 195.806 599.72 192.48C598.223 191.346 596.646 190.323 595 189.42V280.9H616C617.544 289.295 622.13 296.825 628.88 302.05C630.459 303.144 631.772 304.579 632.72 306.25C633.661 304.577 634.971 303.141 636.55 302.05C643.302 296.826 647.891 289.296 649.44 280.9H670.44V189.46C668.793 190.361 667.215 191.384 665.72 192.52C661.3 195.845 657.629 200.062 654.945 204.898C652.261 209.734 650.624 215.08 650.14 220.59L647.18 246.37L648.56 246.22C650.12 246.236 651.619 246.828 652.768 247.882C653.918 248.936 654.637 250.379 654.787 251.931C654.937 253.484 654.508 255.037 653.582 256.292C652.655 257.547 651.298 258.416 649.77 258.73L645.99 259.49C644.7 257.06 643.42 254.63 642.23 252.14C638.66 243.14 635.72 233.93 635.96 224.14C636.07 213.59 637.36 203.08 637.53 192.56C637.53 187.955 635.852 183.507 632.81 180.05L632.76 180ZM601.29 202.64C605.472 207.554 608.121 213.586 608.91 219.99L611.42 241.24C609.805 242.049 608.381 243.193 607.245 244.597C606.108 246.001 605.285 247.632 604.83 249.38H601.27V202.65L601.29 202.64ZM664.29 202.64V249.37H660.72C660.267 247.62 659.445 245.987 658.308 244.581C657.171 243.175 655.747 242.029 654.13 241.22L656.65 219.97C657.444 213.569 660.089 207.539 664.26 202.62L664.29 202.64ZM632.76 245.37C634.431 250.863 636.751 256.137 639.67 261.08C636.95 261.907 634.542 263.534 632.76 265.75C630.981 263.536 628.577 261.909 625.86 261.08C628.773 256.134 631.089 250.861 632.76 245.37V245.37ZM601.29 255.7H604.86C605.415 257.839 606.52 259.795 608.065 261.374C609.611 262.953 611.543 264.1 613.67 264.7L616.67 265.39C615.839 268.403 615.418 271.514 615.42 274.64H601.28V255.71L601.29 255.7ZM660.68 255.7H664.25V274.65H650.08C650.08 271.525 649.66 268.413 648.83 265.4L651.83 264.71C653.959 264.113 655.895 262.968 657.443 261.389C658.99 259.809 660.096 257.851 660.65 255.71L660.68 255.7ZM622.85 266.85C624.728 267.117 626.445 268.054 627.687 269.487C628.929 270.92 629.612 272.754 629.61 274.65H621.74C621.744 272.011 622.118 269.385 622.85 266.85V266.85ZM642.67 266.85C643.403 269.385 643.777 272.011 643.78 274.65H635.91C635.908 272.754 636.591 270.92 637.833 269.487C639.075 268.054 640.793 267.117 642.67 266.85V266.85ZM622.46 280.97H629.62V294.26C626.09 290.548 623.618 285.96 622.46 280.97V280.97ZM635.91 280.97H643.02C641.881 285.964 639.41 290.557 635.87 294.26L635.91 280.97Z" fill="#FFD500"/>
<path d="M151.06 319.47H128V435.37H151.06V319.47Z" fill="white"/>
<path d="M204.2 319.47H128V342.78H204.2V319.47Z" fill="white"/>
<path d="M204.2 366.72H128V390.03H204.2V366.72Z" fill="white"/>
<path d="M204.2 413.97H128V437.28H204.2V413.97Z" fill="white"/>
<path d="M350.06 319.48H327V435.38H350.06V319.48Z" fill="white"/>
<path d="M403.2 319.48H327V342.79H403.2V319.48Z" fill="white"/>
<path d="M403.2 366.73H327V390.04H403.2V366.73Z" fill="white"/>
<path d="M403.2 413.98H327V437.29H403.2V413.98Z" fill="white"/>
<path d="M250.06 319.47H226.75V437.27H250.06V319.47Z" fill="white"/>
<path d="M304.44 319.47H281.13V437.27H304.44V319.47Z" fill="white"/>
<path d="M281.13 437.27L226.75 319.47H250.06L304.44 437.27H281.13Z" fill="white"/>
<path d="M493.93 319.47H471.56V437.27H493.93V319.47Z" fill="white"/>
<path d="M520.57 331.41V378.48V425.56L542.94 415.43V378.48V341.54L520.57 331.41Z" fill="white"/>
<path d="M542.94 413.85V416.85C542.94 422.263 540.79 427.455 536.962 431.282C533.134 435.11 527.943 437.26 522.53 437.26H471.53V413.85H542.94Z" fill="white"/>
<path d="M471.58 342.89V319.47H522.58C525.26 319.47 527.914 319.998 530.391 321.024C532.867 322.049 535.117 323.553 537.012 325.448C538.907 327.343 540.411 329.593 541.436 332.07C542.462 334.546 542.99 337.2 542.99 339.88V342.88H471.58V342.89Z" fill="white"/>
<path d="M449.01 319.47H425.7V437.27H449.01V319.47Z" fill="white"/>
<path d="M472.31 283.56H449V306.87H472.31V283.56Z" fill="white"/>
<path d="M426.07 283.56H402.76V306.87H426.07V283.56Z" fill="white"/>
<path d="M612.12 319.54C611.323 319.456 610.522 319.413 609.72 319.41H584.72C578.538 319.41 572.609 321.866 568.237 326.237C563.866 330.609 561.41 336.538 561.41 342.72V342.72V351.53C561.41 351.605 561.439 351.678 561.491 351.732C561.544 351.786 561.615 351.818 561.69 351.82H583.69C583.767 351.82 583.841 351.79 583.895 351.735C583.949 351.681 583.98 351.607 583.98 351.53V346.37C583.98 345.667 584.259 344.993 584.756 344.496C585.253 343.999 585.927 343.72 586.63 343.72H607.08C607.774 343.723 608.439 344 608.93 344.49C609.42 344.981 609.697 345.646 609.7 346.34V367.86C609.697 367.935 609.666 368.007 609.612 368.059C609.558 368.111 609.485 368.14 609.41 368.14H585.01C578.754 368.14 572.753 370.626 568.329 375.049C563.905 379.473 561.42 385.474 561.42 391.73V413.96C561.419 420.088 563.833 425.969 568.138 430.331C572.443 434.692 578.293 437.181 584.42 437.26H632.82C632.858 437.26 632.895 437.253 632.93 437.238C632.964 437.223 632.995 437.202 633.022 437.175C633.048 437.148 633.068 437.116 633.082 437.08C633.095 437.045 633.101 437.008 633.1 436.97V342.72C633.099 336.943 630.952 331.372 627.075 327.089C623.198 322.806 617.868 320.115 612.12 319.54V319.54ZM609.76 409.89C609.76 410.293 609.681 410.693 609.526 411.065C609.372 411.437 609.146 411.776 608.861 412.061C608.576 412.346 608.237 412.572 607.865 412.726C607.492 412.881 607.093 412.96 606.69 412.96H587.79C586.976 412.96 586.195 412.637 585.619 412.061C585.043 411.485 584.72 410.704 584.72 409.89V395.42C584.72 394.606 585.043 393.825 585.619 393.249C586.195 392.674 586.976 392.35 587.79 392.35H606.69C607.093 392.35 607.492 392.43 607.865 392.584C608.237 392.738 608.576 392.964 608.861 393.249C609.146 393.534 609.372 393.873 609.526 394.245C609.681 394.618 609.76 395.017 609.76 395.42V409.89Z" fill="white"/>
<path d="M612.12 319.54C611.323 319.456 610.522 319.413 609.72 319.41H584.72C578.538 319.41 572.609 321.866 568.237 326.237C563.866 330.609 561.41 336.538 561.41 342.72V342.72V351.53C561.41 351.605 561.439 351.678 561.491 351.732C561.544 351.786 561.615 351.818 561.69 351.82H583.69C583.767 351.82 583.841 351.79 583.895 351.735C583.949 351.681 583.98 351.607 583.98 351.53V346.37C583.98 345.667 584.259 344.993 584.756 344.496C585.253 343.999 585.927 343.72 586.63 343.72H607.08C607.774 343.723 608.439 344 608.93 344.49C609.42 344.981 609.697 345.646 609.7 346.34V367.86C609.697 367.935 609.666 368.007 609.612 368.059C609.558 368.111 609.485 368.14 609.41 368.14H585.01C578.754 368.14 572.753 370.626 568.329 375.049C563.905 379.473 561.42 385.474 561.42 391.73V413.96C561.419 420.088 563.833 425.969 568.138 430.331C572.443 434.692 578.293 437.181 584.42 437.26H632.82C632.858 437.26 632.895 437.253 632.93 437.238C632.964 437.223 632.995 437.202 633.022 437.175C633.048 437.148 633.068 437.116 633.082 437.08C633.095 437.045 633.101 437.008 633.1 436.97V342.72C633.099 336.943 630.952 331.372 627.075 327.089C623.198 322.806 617.868 320.115 612.12 319.54V319.54ZM609.76 409.89C609.76 410.293 609.681 410.693 609.526 411.065C609.372 411.437 609.146 411.776 608.861 412.061C608.576 412.346 608.237 412.572 607.865 412.726C607.492 412.881 607.093 412.96 606.69 412.96H587.79C586.976 412.96 586.195 412.637 585.619 412.061C585.043 411.485 584.72 410.704 584.72 409.89V395.42C584.72 394.606 585.043 393.825 585.619 393.249C586.195 392.674 586.976 392.35 587.79 392.35H606.69C607.093 392.35 607.492 392.43 607.865 392.584C608.237 392.738 608.576 392.964 608.861 393.249C609.146 393.534 609.372 393.873 609.526 394.245C609.681 394.618 609.76 395.017 609.76 395.42V409.89Z" fill="white"/>
</svg>
