<svg width="48" height="48" viewBox="0 0 48 48" fill="none" xmlns="http://www.w3.org/2000/svg">
<g clip-path="url(#clip0_251_376)">
<path fill-rule="evenodd" clip-rule="evenodd" d="M5.44 5.44C4 6.85714 3.17714 8.75429 2.74286 11.7257C2.31489 15.8022 2.16216 19.9029 2.28571 24C2.16236 28.0932 2.31509 32.1902 2.74286 36.2629C2.90584 38.6061 3.85636 40.8253 5.44 42.56V42.56C6.86857 44 8.75429 44.8457 11.7257 45.2571C15.8022 45.6851 19.9029 45.8378 24 45.7143C28.0932 45.8376 32.1902 45.6849 36.2629 45.2571C38.6061 45.0942 40.8253 44.1436 42.56 42.56C44 41.12 44.8457 39.2457 45.2571 36.2629C45.6854 32.1902 45.8382 28.0933 45.7143 24C45.8378 19.9029 45.6851 15.8022 45.2571 11.7257C45.0942 9.38252 44.1436 7.16328 42.56 5.42857C41.12 3.98857 39.2457 3.14286 36.2743 2.74286C32.1978 2.31489 28.0971 2.16216 24 2.28571C19.9029 2.16216 15.8022 2.31489 11.7257 2.74286C8.75429 3.17714 6.85714 4 5.44 5.44ZM44.1829 3.81714C48 7.63429 48 13.4743 48 24C48 34.5257 48 40.3543 44.1829 44.1829C40.3657 48.0114 34.5143 48 24 48C13.4857 48 7.63429 48 3.81714 44.1829C0 40.3657 0 34.5143 0 24C0 13.4857 0 7.63429 3.81714 3.81714C7.63429 0 13.4743 0 24 0C34.5257 0 40.3543 0 44.1829 3.81714Z" fill="white"/>
<path d="M33.5497 14.8237C31.7014 13.9796 29.7193 13.3577 27.6469 13.0015C27.6091 12.9946 27.5714 13.0118 27.552 13.0462C27.2971 13.4974 27.0147 14.0861 26.817 14.5488C24.588 14.2167 22.3704 14.2167 20.1871 14.5488C19.9894 14.0758 19.6968 13.4974 19.4407 13.0462C19.4213 13.0129 19.3836 12.9958 19.3458 13.0015C17.2746 13.3565 15.2925 13.9784 13.443 14.8237C13.427 14.8306 13.4132 14.842 13.4041 14.8569C9.64451 20.4471 8.6146 25.9 9.11984 31.2852C9.12213 31.3116 9.13699 31.3368 9.15756 31.3528C11.638 33.1658 14.0408 34.2664 16.399 34.996C16.4367 35.0075 16.4767 34.9937 16.5007 34.9628C17.0585 34.2046 17.5558 33.4052 17.9821 32.5645C18.0073 32.5153 17.9833 32.4569 17.9318 32.4374C17.1431 32.1396 16.3921 31.7765 15.6697 31.3642C15.6125 31.331 15.608 31.2497 15.6605 31.2107C15.8125 31.0974 15.9646 30.9794 16.1098 30.8603C16.136 30.8385 16.1726 30.8339 16.2035 30.8477C20.9496 33.0043 26.0877 33.0043 30.7777 30.8477C30.8086 30.8328 30.8452 30.8374 30.8726 30.8591C31.0178 30.9783 31.1698 31.0974 31.323 31.2107C31.3756 31.2497 31.3722 31.331 31.315 31.3642C30.5926 31.7845 29.8416 32.1396 29.0517 32.4362C29.0003 32.4557 28.9774 32.5153 29.0026 32.5645C29.4381 33.404 29.9353 34.2034 30.4828 34.9616C30.5057 34.9937 30.5468 35.0075 30.5846 34.996C32.9542 34.2664 35.3569 33.1658 37.8374 31.3528C37.8591 31.3368 37.8728 31.3127 37.8751 31.2864C38.4798 25.0604 36.8623 19.6523 33.5874 14.858C33.5794 14.842 33.5657 14.8306 33.5497 14.8237ZM18.6909 28.0062C17.262 28.0062 16.0846 26.7005 16.0846 25.0971C16.0846 23.4937 17.2391 22.188 18.6909 22.188C20.154 22.188 21.3199 23.5051 21.2971 25.0971C21.2971 26.7005 20.1425 28.0062 18.6909 28.0062ZM28.327 28.0062C26.8981 28.0062 25.7208 26.7005 25.7208 25.0971C25.7208 23.4937 26.8753 22.188 28.327 22.188C29.7901 22.188 30.9561 23.5051 30.9332 25.0971C30.9332 26.7005 29.7901 28.0062 28.327 28.0062Z" fill="white"/>
</g>
<defs>
<clipPath id="clip0_251_376">
<rect width="48" height="48" fill="white"/>
</clipPath>
</defs>
</svg>
