<svg width="48" height="48" viewBox="0 0 48 48" fill="none" xmlns="http://www.w3.org/2000/svg">
<g clip-path="url(#clip0_251_382)">
<rect width="48" height="48" rx="13" fill="white"/>
<path fill-rule="evenodd" clip-rule="evenodd" d="M35.9887 8.32001C35.2163 8.32014 34.4678 8.58821 33.871 9.0785C33.2741 9.56879 32.8658 10.2509 32.7157 11.0086C32.5656 11.7663 32.683 12.5526 33.0478 13.2334C33.4127 13.9142 34.0024 14.4474 34.7164 14.742C35.4304 15.0366 36.2245 15.0744 36.9633 14.849C37.702 14.6235 38.3397 14.1488 38.7676 13.5057C39.1955 12.8627 39.387 12.0911 39.3096 11.3226C39.2321 10.5541 38.8905 9.83622 38.3429 9.29144C37.7154 8.67227 36.8703 8.32355 35.9887 8.32001Z" fill="#171717"/>
<path fill-rule="evenodd" clip-rule="evenodd" d="M24 31.2343C25.4308 31.2343 26.8295 30.81 28.0192 30.0151C29.2088 29.2202 30.1361 28.0904 30.6836 26.7685C31.2312 25.4466 31.3744 23.992 31.0953 22.5887C30.8162 21.1854 30.1272 19.8963 29.1154 18.8846C28.1037 17.8729 26.8147 17.1839 25.4114 16.9047C24.008 16.6256 22.5535 16.7689 21.2316 17.3164C19.9097 17.864 18.7798 18.7912 17.9849 19.9809C17.19 21.1705 16.7657 22.5692 16.7657 24C16.7642 24.9505 16.9503 25.8919 17.3133 26.7702C17.6764 27.6486 18.2092 28.4467 18.8812 29.1188C19.5533 29.7909 20.3514 30.3237 21.2298 30.6867C22.1082 31.0497 23.0496 31.2358 24 31.2343ZM24 34.6629C26.1089 34.6629 28.1705 34.0375 29.924 32.8659C31.6775 31.6942 33.0442 30.0289 33.8512 28.0805C34.6583 26.1321 34.8694 23.9882 34.458 21.9198C34.0466 19.8514 33.031 17.9515 31.5398 16.4602C30.0486 14.969 28.1486 13.9535 26.0802 13.542C24.0118 13.1306 21.8679 13.3418 19.9195 14.1488C17.9711 14.9559 16.3058 16.3226 15.1342 18.0761C13.9625 19.8296 13.3372 21.8911 13.3372 24C13.3372 26.828 14.4606 29.5401 16.4602 31.5398C18.4599 33.5395 21.172 34.6629 24 34.6629Z" fill="#171717"/>
</g>
<defs>
<clipPath id="clip0_251_382">
<rect width="48" height="48" fill="white"/>
</clipPath>
</defs>
</svg>
