<svg width="48" height="48" viewBox="0 0 48 48" fill="none" xmlns="http://www.w3.org/2000/svg">
<g clip-path="url(#clip0_251_388)">
<rect width="48" height="48" rx="13" fill="white"/>
<path d="M35.92 14.0685L31.8972 33.3028C31.6 34.6514 30.7543 34.9943 29.68 34.3543L23.5429 29.7828L20.5715 32.6628C20.4266 32.8523 20.2397 33.0057 20.0255 33.1108C19.8114 33.2159 19.5757 33.2699 19.3372 33.2685L19.7715 26.9371L31.2 16.5257C31.6915 16.08 31.0858 15.84 30.4229 16.2857L16.3429 25.2457L10.2858 23.3257C8.97147 22.9143 8.94862 22 10.56 21.36L34.2858 12.1257C35.4286 11.7028 36.3429 12.3657 35.9772 14.0685H35.92Z" fill="#171717"/>
</g>
<defs>
<clipPath id="clip0_251_388">
<rect width="48" height="48" fill="white"/>
</clipPath>
</defs>
</svg>
