<svg width="48" height="48" viewBox="0 0 48 48" fill="none" xmlns="http://www.w3.org/2000/svg">
<g clip-path="url(#clip0_251_403)">
<rect width="48" height="48" rx="13" fill="white"/>
<path d="M32.7366 17.2575C32.5657 17.1692 32.3994 17.0724 32.2382 16.9674C31.7695 16.6576 31.3398 16.2925 30.9583 15.88C30.0039 14.7879 29.6474 13.68 29.5161 12.9042H29.5213C29.4116 12.2604 29.457 11.8438 29.4639 11.8438H25.1164V28.6544C25.1164 28.8801 25.1164 29.1032 25.1069 29.3236C25.1069 29.351 25.1043 29.3763 25.1027 29.4059C25.1027 29.418 25.1027 29.4307 25.1001 29.4433C25.1001 29.4465 25.1001 29.4496 25.1001 29.4528C25.0543 30.056 24.8609 30.6386 24.537 31.1495C24.2132 31.6604 23.7687 32.0839 23.2428 32.3827C22.6946 32.6946 22.0747 32.8582 21.444 32.8573C19.4185 32.8573 17.7769 31.2057 17.7769 29.1659C17.7769 27.1262 19.4185 25.4745 21.444 25.4745C21.8274 25.4742 22.2085 25.5345 22.5731 25.6533L22.5783 21.2268C21.4716 21.0838 20.3473 21.1718 19.2763 21.4851C18.2053 21.7984 17.2108 22.3303 16.3557 23.0472C15.6064 23.6982 14.9764 24.4751 14.4942 25.3427C14.3106 25.6591 13.6182 26.9305 13.5344 28.994C13.4817 30.1653 13.8334 31.3787 14.0011 31.8802V31.8907C14.1066 32.186 14.5152 33.1938 15.1813 34.0433C15.7183 34.7248 16.3529 35.3234 17.0644 35.82V35.8094L17.075 35.82C19.1796 37.2501 21.5131 37.1562 21.5131 37.1562C21.917 37.1399 23.2702 37.1562 24.8069 36.428C26.5113 35.6206 27.4816 34.4178 27.4816 34.4178C28.1015 33.699 28.5944 32.8799 28.9391 31.9957C29.3325 30.9615 29.4639 29.7212 29.4639 29.2255V20.3071C29.5166 20.3387 30.219 20.8033 30.219 20.8033C30.219 20.8033 31.231 21.452 32.8099 21.8744C33.9426 22.1749 35.4687 22.2382 35.4687 22.2382V17.9224C34.934 17.9804 33.8482 17.8117 32.7366 17.2575Z" fill="#171717"/>
</g>
<defs>
<clipPath id="clip0_251_403">
<rect width="48" height="48" fill="white"/>
</clipPath>
</defs>
</svg>
