<svg width="48" height="48" viewBox="0 0 48 48" fill="none" xmlns="http://www.w3.org/2000/svg">
<g clip-path="url(#clip0_251_371)">
<path fill-rule="evenodd" clip-rule="evenodd" d="M5.44 5.44C4 6.85714 3.17714 8.75429 2.74286 11.7257C2.31489 15.8022 2.16216 19.9029 2.28571 24C2.16236 28.0932 2.31509 32.1902 2.74286 36.2629C2.90584 38.6061 3.85636 40.8253 5.44 42.56C6.86857 44 8.75429 44.8457 11.7257 45.2571C15.8022 45.6851 19.9029 45.8378 24 45.7143C28.0932 45.8376 32.1902 45.6849 36.2629 45.2571C38.6061 45.0942 40.8253 44.1436 42.56 42.56C44 41.12 44.8457 39.2457 45.2571 36.2629C45.6854 32.1902 45.8382 28.0933 45.7143 24C45.8378 19.9029 45.6851 15.8022 45.2571 11.7257C45.0942 9.38252 44.1436 7.16328 42.56 5.42857C41.12 3.98857 39.2457 3.14286 36.2743 2.74286C32.1978 2.31489 28.0971 2.16216 24 2.28571C19.9029 2.16216 15.8022 2.31489 11.7257 2.74286C8.75429 3.17714 6.85714 4 5.44 5.44ZM44.1829 3.81714C48 7.63429 48 13.4743 48 24C48 34.5257 48 40.3543 44.1829 44.1829C40.3657 48.0114 34.5143 48 24 48C13.4857 48 7.63429 48 3.81714 44.1829C0 40.3657 0 34.5143 0 24C0 13.4857 0 7.63429 3.81714 3.81714C7.63429 0 13.4743 0 24 0C34.5257 0 40.3543 0 44.1829 3.81714Z" fill="white"/>
<path d="M32.7366 17.2575C32.5657 17.1692 32.3994 17.0724 32.2382 16.9674C31.7695 16.6576 31.3398 16.2925 30.9583 15.88C30.0039 14.7879 29.6474 13.68 29.5161 12.9042H29.5213C29.4116 12.2604 29.457 11.8438 29.4639 11.8438H25.1164V28.6544C25.1164 28.8801 25.1164 29.1032 25.1069 29.3236C25.1069 29.351 25.1043 29.3763 25.1027 29.4059C25.1027 29.418 25.1027 29.4307 25.1001 29.4433C25.1001 29.4465 25.1001 29.4496 25.1001 29.4528C25.0543 30.056 24.8609 30.6386 24.537 31.1495C24.2132 31.6604 23.7687 32.0839 23.2428 32.3827C22.6946 32.6946 22.0747 32.8582 21.444 32.8573C19.4185 32.8573 17.7769 31.2057 17.7769 29.1659C17.7769 27.1262 19.4185 25.4745 21.444 25.4745C21.8274 25.4742 22.2085 25.5345 22.5731 25.6533L22.5783 21.2268C21.4716 21.0838 20.3473 21.1718 19.2763 21.4851C18.2053 21.7984 17.2108 22.3303 16.3557 23.0472C15.6064 23.6982 14.9764 24.4751 14.4942 25.3427C14.3106 25.6591 13.6182 26.9305 13.5344 28.994C13.4817 30.1653 13.8334 31.3787 14.0011 31.8802V31.8907C14.1066 32.186 14.5152 33.1938 15.1813 34.0433C15.7183 34.7248 16.3529 35.3234 17.0644 35.82V35.8094L17.075 35.82C19.1796 37.2501 21.5131 37.1562 21.5131 37.1562C21.917 37.1399 23.2702 37.1562 24.8069 36.428C26.5113 35.6206 27.4816 34.4178 27.4816 34.4178C28.1015 33.699 28.5944 32.8799 28.9391 31.9957C29.3325 30.9615 29.4639 29.7212 29.4639 29.2255V20.3071C29.5166 20.3387 30.219 20.8033 30.219 20.8033C30.219 20.8033 31.231 21.452 32.8099 21.8744C33.9426 22.1749 35.4687 22.2382 35.4687 22.2382V17.9224C34.934 17.9804 33.8482 17.8117 32.7366 17.2575Z" fill="white"/>
</g>
<defs>
<clipPath id="clip0_251_371">
<rect width="48" height="48" fill="white"/>
</clipPath>
</defs>
</svg>
