<svg width="48" height="48" viewBox="0 0 48 48" fill="none" xmlns="http://www.w3.org/2000/svg">
<g clip-path="url(#clip0_251_393)">
<rect width="48" height="48" rx="13" fill="white"/>
<path d="M33.5314 18.2857C33.5314 18.5029 33.5314 18.72 33.5314 18.9372C33.5314 25.6115 28.5828 33.3029 19.5428 33.3029C16.8545 33.3017 14.2265 32.5066 11.9885 31.0172C12.3679 31.0614 12.7494 31.0843 13.1314 31.0857C15.3531 31.0866 17.5077 30.324 19.2342 28.9257C18.2018 28.8957 17.2049 28.5419 16.3846 27.9143C15.5642 27.2868 14.9619 26.4172 14.6628 25.4286C14.9689 25.4784 15.2784 25.5051 15.5885 25.5086C16.0244 25.5044 16.4581 25.4468 16.88 25.3372C15.7525 25.0901 14.7447 24.4619 14.0265 23.5583C13.3082 22.6548 12.9235 21.5313 12.9371 20.3772V20.32C13.6351 20.7174 14.42 20.9371 15.2228 20.96C14.1857 20.2268 13.4573 19.135 13.1787 17.8958C12.9 16.6566 13.0908 15.3581 13.7142 14.2515C14.93 15.8032 16.4634 17.0772 18.2118 17.9878C19.9601 18.8984 21.883 19.4248 23.8514 19.5315C23.7696 19.1559 23.7275 18.7729 23.7257 18.3886C23.7071 17.0787 24.2052 15.8141 25.1122 14.8687C26.0191 13.9233 27.2618 13.3731 28.5714 13.3372C29.2475 13.3356 29.9163 13.4763 30.5346 13.7499C31.1528 14.0236 31.7066 14.4242 32.16 14.9257C33.2801 14.718 34.353 14.3074 35.3257 13.7143C34.9578 14.8735 34.1823 15.8602 33.1428 16.4915C34.1228 16.3776 35.0791 16.1115 35.9771 15.7029C35.3109 16.6936 34.4843 17.5665 33.5314 18.2857Z" fill="#171717"/>
</g>
<defs>
<clipPath id="clip0_251_393">
<rect width="48" height="48" fill="white"/>
</clipPath>
</defs>
</svg>
