<svg width="48" height="48" viewBox="0 0 48 48" fill="none" xmlns="http://www.w3.org/2000/svg">
<g clip-path="url(#clip0_251_361)">
<path fill-rule="evenodd" clip-rule="evenodd" d="M5.44 5.44C4 6.85714 3.17714 8.75429 2.74286 11.7257C2.31489 15.8022 2.16216 19.9029 2.28571 24C2.16236 28.0932 2.31509 32.1902 2.74286 36.2629C2.90584 38.6061 3.85636 40.8253 5.44 42.56C6.86857 44 8.75429 44.8457 11.7257 45.2571C15.8022 45.6851 19.9029 45.8378 24 45.7143C28.0932 45.8376 32.1902 45.6849 36.2629 45.2571C38.6061 45.0942 40.8253 44.1436 42.56 42.56C44 41.12 44.8457 39.2457 45.2571 36.2629C45.6854 32.1902 45.8382 28.0933 45.7143 24C45.8378 19.9029 45.6851 15.8022 45.2571 11.7257C45.0942 9.38252 44.1436 7.16328 42.56 5.42857C41.12 3.98857 39.2457 3.14286 36.2743 2.74286C32.1978 2.31489 28.0971 2.16216 24 2.28571C19.9029 2.16216 15.8022 2.31489 11.7257 2.74286C8.75429 3.17714 6.85714 4 5.44 5.44ZM44.1829 3.81714C48 7.63429 48 13.4743 48 24C48 34.5257 48 40.3543 44.1829 44.1829C40.3657 48.0114 34.5143 48 24 48C13.4857 48 7.63429 48 3.81714 44.1829C0 40.3657 0 34.5143 0 24C0 13.4857 0 7.63429 3.81714 3.81714C7.63429 0 13.4743 0 24 0C34.5257 0 40.3543 0 44.1829 3.81714Z" fill="white"/>
<path d="M33.5314 18.2857C33.5314 18.5029 33.5314 18.72 33.5314 18.9371C33.5314 25.6114 28.5828 33.3029 19.5428 33.3029C16.8545 33.3017 14.2265 32.5065 11.9885 31.0171C12.3679 31.0613 12.7494 31.0842 13.1314 31.0857C15.3531 31.0865 17.5077 30.324 19.2342 28.9257C18.2018 28.8957 17.2049 28.5419 16.3846 27.9143C15.5642 27.2867 14.9619 26.4172 14.6628 25.4286C14.9689 25.4784 15.2784 25.5051 15.5885 25.5086C16.0244 25.5044 16.4581 25.4468 16.88 25.3371C15.7525 25.0901 14.7447 24.4618 14.0265 23.5583C13.3082 22.6548 12.9235 21.5313 12.9371 20.3771V20.32C13.6351 20.7173 14.42 20.9371 15.2228 20.96C14.1857 20.2268 13.4573 19.135 13.1787 17.8958C12.9 16.6566 13.0908 15.3581 13.7142 14.2514C14.93 15.8032 16.4634 17.0771 18.2118 17.9878C19.9601 18.8984 21.883 19.4247 23.8514 19.5314C23.7696 19.1559 23.7275 18.7729 23.7257 18.3886C23.7071 17.0786 24.2052 15.8141 25.1122 14.8687C26.0191 13.9233 27.2618 13.3731 28.5714 13.3371C29.2475 13.3356 29.9163 13.4762 30.5346 13.7499C31.1528 14.0236 31.7066 14.4242 32.16 14.9257C33.2801 14.7179 34.353 14.3074 35.3257 13.7143C34.9578 14.8735 34.1823 15.8601 33.1428 16.4914C34.1228 16.3776 35.0791 16.1115 35.9771 15.7029C35.3109 16.6936 34.4843 17.5665 33.5314 18.2857Z" fill="white"/>
</g>
<defs>
<clipPath id="clip0_251_361">
<rect width="48" height="48" fill="white"/>
</clipPath>
</defs>
</svg>
