<svg width="48" height="48" viewBox="0 0 48 48" fill="none" xmlns="http://www.w3.org/2000/svg">
<g clip-path="url(#clip0_251_366)">
<path fill-rule="evenodd" clip-rule="evenodd" d="M5.44 5.44C4 6.85714 3.17714 8.75429 2.74286 11.7257C2.31489 15.8022 2.16216 19.9029 2.28571 24C2.16236 28.0932 2.31509 32.1902 2.74286 36.2629C2.90584 38.6061 3.85636 40.8253 5.44 42.56C6.86857 44 8.75429 44.8457 11.7257 45.2571C15.8022 45.6851 19.9029 45.8378 24 45.7143C28.0932 45.8376 32.1902 45.6849 36.2629 45.2571C38.6061 45.0942 40.8253 44.1436 42.56 42.56C44 41.12 44.8457 39.2457 45.2571 36.2629C45.6854 32.1902 45.8382 28.0933 45.7143 24C45.8378 19.9029 45.6851 15.8022 45.2571 11.7257C45.0942 9.38252 44.1436 7.16328 42.56 5.42857C41.12 3.98857 39.2457 3.14286 36.2743 2.74286C32.1978 2.31489 28.0971 2.16216 24 2.28571C19.9029 2.16216 15.8022 2.31489 11.7257 2.74286C8.75429 3.17714 6.85714 4 5.44 5.44ZM44.1829 3.81714C48 7.63429 48 13.4743 48 24C48 34.5257 48 40.3543 44.1829 44.1829C40.3657 48.0114 34.5143 48 24 48C13.4857 48 7.63429 48 3.81714 44.1829C0 40.3657 0 34.5143 0 24C0 13.4857 0 7.63429 3.81714 3.81714C7.63429 0 13.4743 0 24 0C34.5257 0 40.3543 0 44.1829 3.81714Z" fill="white"/>
<path fill-rule="evenodd" clip-rule="evenodd" d="M35.4285 14.3772C36.0482 14.5425 36.6132 14.8683 37.0667 15.3218C37.5202 15.7753 37.8461 16.3404 38.0114 16.96C38.4542 19.2803 38.6724 21.6379 38.6628 24C38.6774 26.3679 38.4746 28.7321 38.0571 31.0629C37.8921 31.6939 37.5614 32.2692 37.0992 32.7294C36.637 33.1896 36.0602 33.5178 35.4285 33.68C33.1428 34.2857 23.9999 34.2857 23.9999 34.2857C23.9999 34.2857 14.8571 34.2857 12.5714 33.6572C11.9438 33.4978 11.3698 33.1748 10.908 32.721C10.4461 32.2672 10.1131 31.699 9.94278 31.0743C9.52374 28.7398 9.32098 26.3717 9.33707 24C9.32258 21.6359 9.52533 19.2755 9.94278 16.9486C10.1166 16.3245 10.4507 15.7567 10.9118 15.3016C11.3729 14.8465 11.945 14.5199 12.5714 14.3543C14.8571 13.7143 23.9999 13.7143 23.9999 13.7143C23.9999 13.7143 33.1428 13.7143 35.4285 14.3772ZM28.7085 24L21.0742 28.4V19.6229L28.7085 24Z" fill="white"/>
</g>
<defs>
<clipPath id="clip0_251_366">
<rect width="48" height="48" fill="white"/>
</clipPath>
</defs>
</svg>
