<svg width="48" height="48" viewBox="0 0 48 48" fill="none" xmlns="http://www.w3.org/2000/svg">
<g clip-path="url(#clip0_251_398)">
<rect width="48" height="48" rx="13" fill="white"/>
<path fill-rule="evenodd" clip-rule="evenodd" d="M35.4285 14.3772C36.0482 14.5425 36.6132 14.8683 37.0667 15.3218C37.5202 15.7753 37.8461 16.3404 38.0114 16.96C38.4542 19.2803 38.6724 21.6379 38.6628 24C38.6774 26.3679 38.4746 28.7321 38.0571 31.0629C37.8921 31.6939 37.5614 32.2692 37.0992 32.7294C36.637 33.1896 36.0602 33.5178 35.4285 33.68C33.1428 34.2857 23.9999 34.2857 23.9999 34.2857C23.9999 34.2857 14.8571 34.2857 12.5714 33.6572C11.9438 33.4978 11.3698 33.1748 10.908 32.721C10.4461 32.2672 10.1131 31.699 9.94278 31.0743C9.52374 28.7398 9.32098 26.3717 9.33707 24C9.32258 21.6359 9.52533 19.2755 9.94278 16.9486C10.1166 16.3245 10.4507 15.7567 10.9118 15.3016C11.3729 14.8465 11.945 14.5199 12.5714 14.3543C14.8571 13.7143 23.9999 13.7143 23.9999 13.7143C23.9999 13.7143 33.1428 13.7143 35.4285 14.3772ZM28.7085 24L21.0742 28.4V19.6229L28.7085 24Z" fill="#171717"/>
</g>
<defs>
<clipPath id="clip0_251_398">
<rect width="48" height="48" fill="white"/>
</clipPath>
</defs>
</svg>
