<svg width="115" height="115" viewBox="0 0 115 115" fill="none" xmlns="http://www.w3.org/2000/svg">
<path d="M90.6346 54.1399L72.0276 47.2525L65.0795 24.4804C64.8119 23.6022 63.9985 23 63.0806 23C62.1627 23 61.3493 23.6022 61.0817 24.4804L54.1357 47.2525L35.5266 54.1399C34.7049 54.4452 34.1613 55.2251 34.1613 56.1012C34.1613 56.9752 34.7049 57.7593 35.5266 58.0625L54.1253 64.9478L61.0754 88.4141C61.3389 89.3006 62.1544 89.9091 63.0806 89.9091C64.0048 89.9091 64.8223 89.3006 65.0858 88.412L72.036 64.9457L90.6367 58.0604C91.4543 57.7593 92 56.9773 92 56.1012C92 55.2272 91.4543 54.4452 90.6346 54.1399Z" fill="#FFAC33"/>
<path d="M48.8164 77.1421L43.9781 75.3522L42.0962 68.4522C41.8495 67.5406 41.0236 66.9091 40.0806 66.9091C39.1376 66.9091 38.3117 67.5406 38.0629 68.4501L36.1811 75.3502L31.3448 77.14C30.5231 77.4431 29.9794 78.2272 29.9794 79.1012C29.9794 79.9752 30.5231 80.7593 31.3448 81.0625L36.156 82.8461L38.0524 90.4193C38.2866 91.3477 39.1209 92.0001 40.0806 92.0001C41.0403 92.0001 41.8746 91.3477 42.1088 90.4172L44.0052 82.844L48.8164 81.0604C49.6382 80.7593 50.1818 79.9752 50.1818 79.1012C50.1818 78.2272 49.6382 77.4431 48.8164 77.1421ZM39.7461 31.8467L34.8031 30.0172L32.9715 25.0722C32.6683 24.2504 31.8863 23.7068 31.0102 23.7068C30.1362 23.7068 29.3542 24.2504 29.049 25.0722L27.2194 30.0172L22.2744 31.8467C21.4527 32.152 20.9091 32.934 20.9091 33.808C20.9091 34.682 21.4527 35.4661 22.2744 35.7692L27.2194 37.5988L29.049 42.5438C29.3542 43.3655 30.1362 43.9091 31.0102 43.9091C31.8842 43.9091 32.6662 43.3655 32.9715 42.5438L34.8011 37.5988L39.7461 35.7692C40.5678 35.464 41.1114 34.682 41.1114 33.808C41.1114 32.934 40.5678 32.152 39.7461 31.8467Z" fill="#FFCC4D"/>
</svg>
