<svg width="48" height="48" viewBox="0 0 48 48" fill="none" xmlns="http://www.w3.org/2000/svg">
<rect width="48" height="48" fill="#1E1E1E"/>
<g clip-path="url(#clip0_17_55)">
<rect width="1920" height="2425" transform="translate(-1378 -147)" fill="white"/>
<rect x="-1378" y="-147" width="1920" height="1090" fill="#171717"/>
<path d="M-1378 -185H554V905H-1378V-185Z" fill="url(#paint0_linear_17_55)"/>
<rect x="-157" y="-23" width="697" height="95" fill="#171717"/>
<g clip-path="url(#clip1_17_55)">
<path fill-rule="evenodd" clip-rule="evenodd" d="M5.44 5.44C4 6.85714 3.17714 8.75429 2.74286 11.7257C2.31489 15.8022 2.16216 19.9029 2.28571 24C2.16236 28.0932 2.31509 32.1902 2.74286 36.2629C2.90584 38.6061 3.85636 40.8253 5.44 42.56V42.56C6.86857 44 8.75429 44.8457 11.7257 45.2571C15.8022 45.6851 19.9029 45.8378 24 45.7143C28.0932 45.8376 32.1902 45.6849 36.2629 45.2571C38.6061 45.0942 40.8253 44.1436 42.56 42.56C44 41.12 44.8457 39.2457 45.2571 36.2629C45.6854 32.1902 45.8382 28.0933 45.7143 24C45.8378 19.9029 45.6851 15.8022 45.2571 11.7257C45.0942 9.38252 44.1436 7.16328 42.56 5.42857C41.12 3.98857 39.2457 3.14286 36.2743 2.74286C32.1978 2.31489 28.0971 2.16216 24 2.28571C19.9029 2.16216 15.8022 2.31489 11.7257 2.74286C8.75429 3.17714 6.85714 4 5.44 5.44ZM44.1829 3.81714C48 7.63429 48 13.4743 48 24C48 34.5257 48 40.3543 44.1829 44.1829C40.3657 48.0114 34.5143 48 24 48C13.4857 48 7.63429 48 3.81714 44.1829C0 40.3657 0 34.5143 0 24C0 13.4857 0 7.63429 3.81714 3.81714C7.63429 0 13.4743 0 24 0C34.5257 0 40.3543 0 44.1829 3.81714Z" fill="white"/>
<path fill-rule="evenodd" clip-rule="evenodd" d="M35.9886 8.32C35.2162 8.32013 34.4678 8.5882 33.8709 9.07849C33.2741 9.56878 32.8658 10.2509 32.7157 11.0086C32.5656 11.7663 32.6829 12.5526 33.0478 13.2334C33.4126 13.9142 34.0023 14.4474 34.7163 14.742C35.4303 15.0366 36.2244 15.0744 36.9632 14.849C37.702 14.6235 38.3397 14.1488 38.7675 13.5057C39.1954 12.8627 39.387 12.0911 39.3095 11.3226C39.2321 10.5541 38.8905 9.83621 38.3429 9.29143C37.7153 8.67226 36.8702 8.32354 35.9886 8.32V8.32Z" fill="white"/>
<path fill-rule="evenodd" clip-rule="evenodd" d="M24 31.2343C25.4309 31.2343 26.8295 30.81 28.0192 30.0151C29.2089 29.2202 30.1361 28.0903 30.6837 26.7684C31.2312 25.4465 31.3745 23.992 31.0953 22.5887C30.8162 21.1853 30.1272 19.8963 29.1155 18.8846C28.1037 17.8729 26.8147 17.1839 25.4114 16.9047C24.0081 16.6256 22.5535 16.7688 21.2316 17.3164C19.9097 17.8639 18.7799 18.7912 17.985 19.9808C17.19 21.1705 16.7658 22.5692 16.7658 24C16.7643 24.9504 16.9503 25.8918 17.3134 26.7702C17.6764 27.6486 18.2092 28.4467 18.8813 29.1188C19.5533 29.7908 20.3514 30.3237 21.2298 30.6867C22.1082 31.0497 23.0496 31.2358 24 31.2343V31.2343ZM24 34.6629C26.109 34.6629 28.1705 34.0375 29.924 32.8658C31.6775 31.6942 33.0442 30.0289 33.8512 28.0805C34.6583 26.1321 34.8694 23.9882 34.458 21.9198C34.0466 19.8514 33.0311 17.9514 31.5398 16.4602C30.0486 14.969 28.1487 13.9535 26.0803 13.542C24.0119 13.1306 21.8679 13.3418 19.9195 14.1488C17.9712 14.9559 16.3059 16.3225 15.1342 18.076C13.9626 19.8295 13.3372 21.8911 13.3372 24C13.3372 26.828 14.4606 29.5401 16.4603 31.5398C18.4599 33.5395 21.1721 34.6629 24 34.6629Z" fill="white"/>
</g>
</g>
<defs>
<linearGradient id="paint0_linear_17_55" x1="223.447" y1="905" x2="1.30691" y2="-1293.28" gradientUnits="userSpaceOnUse">
<stop stop-color="#171717"/>
<stop offset="1" stop-color="#171717" stop-opacity="0.15"/>
</linearGradient>
<clipPath id="clip0_17_55">
<rect width="1920" height="2425" fill="white" transform="translate(-1378 -147)"/>
</clipPath>
<clipPath id="clip1_17_55">
<rect width="48" height="48" fill="white"/>
</clipPath>
</defs>
</svg>
