<svg width="48" height="48" viewBox="0 0 48 48" fill="none" xmlns="http://www.w3.org/2000/svg">
<path fill-rule="evenodd" clip-rule="evenodd" d="M5.44 5.44C4 6.85714 3.17714 8.75429 2.74286 11.7257C2.31489 15.8022 2.16216 19.9029 2.28571 24C2.16236 28.0932 2.31509 32.1902 2.74286 36.2629C2.90584 38.6061 3.85636 40.8253 5.44 42.56C6.86857 44 8.75429 44.8457 11.7257 45.2571C15.8022 45.6851 19.9029 45.8378 24 45.7143C28.0932 45.8376 32.1902 45.6849 36.2629 45.2571C38.6061 45.0942 40.8253 44.1436 42.56 42.56C44 41.12 44.8457 39.2457 45.2571 36.2629C45.6854 32.1902 45.8382 28.0933 45.7143 24C45.8378 19.9029 45.6851 15.8022 45.2571 11.7257C45.0942 9.38252 44.1436 7.16328 42.56 5.42857C41.12 3.98857 39.2457 3.14286 36.2743 2.74286C32.1978 2.31489 28.0971 2.16216 24 2.28571C19.9029 2.16216 15.8022 2.31489 11.7257 2.74286C8.75429 3.17714 6.85714 4 5.44 5.44ZM44.1829 3.81714C48 7.63429 48 13.4743 48 24C48 34.5257 48 40.3543 44.1829 44.1829C40.3657 48.0114 34.5143 48 24 48C13.4857 48 7.63429 48 3.81714 44.1829C0 40.3657 0 34.5143 0 24C0 13.4857 0 7.63429 3.81714 3.81714C7.63429 0 13.4743 0 24 0C34.5257 0 40.3543 0 44.1829 3.81714Z" fill="white"/>
</svg>
