<svg width="29" height="22" viewBox="0 0 29 22" fill="none" xmlns="http://www.w3.org/2000/svg">
<path d="M24.5497 1.82368C22.7014 0.979578 20.7193 0.357681 18.6469 0.00149416C18.6091 -0.00538013 18.5714 0.0117991 18.552 0.0461583C18.2971 0.497402 18.0147 1.08609 17.817 1.54879C15.588 1.21666 13.3704 1.21666 11.1871 1.54879C10.9894 1.0758 10.6968 0.497402 10.4407 0.0461583C10.4213 0.0129455 10.3836 -0.00423374 10.3458 0.00149416C8.27456 0.356542 6.29247 0.978439 4.44296 1.82368C4.42695 1.83055 4.41323 1.84201 4.40412 1.85689C0.644515 7.44714 -0.385398 12.9 0.119843 18.2852C0.122129 18.3116 0.136989 18.3368 0.157564 18.3528C2.63804 20.1658 5.04081 21.2664 7.39896 21.996C7.4367 22.0075 7.47669 21.9937 7.50071 21.9628C8.05853 21.2046 8.55578 20.4052 8.98212 19.5645C9.00728 19.5153 8.98326 19.4569 8.93184 19.4374C8.14312 19.1396 7.3921 18.7765 6.66967 18.3642C6.61253 18.331 6.60796 18.2497 6.66052 18.2107C6.81255 18.0974 6.96462 17.9794 7.10978 17.8603C7.13604 17.8385 7.17264 17.8339 7.20352 17.8477C11.9496 20.0043 17.0877 20.0043 21.7777 17.8477C21.8086 17.8328 21.8452 17.8374 21.8726 17.8591C22.0178 17.9783 22.1698 18.0974 22.323 18.2107C22.3756 18.2497 22.3722 18.331 22.315 18.3642C21.5926 18.7845 20.8416 19.1396 20.0517 19.4362C20.0003 19.4557 19.9774 19.5153 20.0026 19.5645C20.4381 20.404 20.9353 21.2034 21.4828 21.9616C21.5057 21.9937 21.5468 22.0075 21.5846 21.996C23.9542 21.2664 26.3569 20.1658 28.8374 18.3528C28.8591 18.3368 28.8728 18.3127 28.8751 18.2864C29.4798 12.0604 27.8623 6.65231 24.5874 1.85803C24.5794 1.84201 24.5657 1.83055 24.5497 1.82368ZM9.69086 15.0062C8.26198 15.0062 7.08462 13.7005 7.08462 12.0971C7.08462 10.4937 8.23915 9.18803 9.69086 9.18803C11.154 9.18803 12.3199 10.5051 12.2971 12.0971C12.2971 13.7005 11.1425 15.0062 9.69086 15.0062ZM19.327 15.0062C17.8981 15.0062 16.7208 13.7005 16.7208 12.0971C16.7208 10.4937 17.8753 9.18803 19.327 9.18803C20.7901 9.18803 21.9561 10.5051 21.9332 12.0971C21.9332 13.7005 20.7901 15.0062 19.327 15.0062Z" fill="white"/>
</svg>
