<svg width="30" height="22" viewBox="0 0 30 22" fill="none" xmlns="http://www.w3.org/2000/svg">
<path fill-rule="evenodd" clip-rule="evenodd" d="M26.4286 1.37714C27.0482 1.54244 27.6133 1.86828 28.0668 2.32177C28.5203 2.77525 28.8461 3.34034 29.0114 3.96C29.4543 6.28028 29.6724 8.63785 29.6628 11C29.6775 13.3679 29.4747 15.7321 29.0571 18.0629C28.8922 18.6938 28.5614 19.2692 28.0993 19.7294C27.6371 20.1896 27.0603 20.5178 26.4286 20.68C24.1428 21.2857 15 21.2857 15 21.2857C15 21.2857 5.85713 21.2857 3.57141 20.6571C2.94386 20.4978 2.36984 20.1748 1.90802 19.721C1.4462 19.2672 1.11313 18.699 0.942842 18.0743C0.523803 15.7398 0.321039 13.3717 0.337128 11C0.322637 8.63593 0.525394 6.27554 0.942842 3.94857C1.11667 3.32446 1.45073 2.75667 1.91184 2.30157C2.37294 1.84648 2.94507 1.51991 3.57141 1.35429C5.85713 0.714287 15 0.714287 15 0.714287C15 0.714287 24.1428 0.714287 26.4286 1.37714ZM19.7086 11L12.0743 15.4V6.62286L19.7086 11Z" fill="white"/>
</svg>
