<svg width="8" height="7" viewBox="0 0 8 7" fill="none" xmlns="http://www.w3.org/2000/svg">
<rect width="8" height="7" fill="#1E1E1E"/>
<g clip-path="url(#clip0_17_55)">
<rect width="1920" height="2425" transform="translate(-1410 -155)" fill="white"/>
<rect x="-1410" y="-155" width="1920" height="1090" fill="#171717"/>
<path d="M-1410 -193H522V897H-1410V-193Z" fill="url(#paint0_linear_17_55)"/>
<rect x="-189" y="-31" width="697" height="95" fill="#171717"/>
<g clip-path="url(#clip1_17_55)">
<path fill-rule="evenodd" clip-rule="evenodd" d="M-26.56 -2.56C-28 -1.14286 -28.8229 0.754286 -29.2571 3.72572C-29.6851 7.80223 -29.8378 11.9029 -29.7143 16C-29.8376 20.0932 -29.6849 24.1902 -29.2571 28.2629C-29.0942 30.6061 -28.1436 32.8253 -26.56 34.56V34.56C-25.1314 36 -23.2457 36.8457 -20.2743 37.2571C-16.1978 37.6851 -12.0971 37.8378 -8 37.7143C-3.90675 37.8376 0.190155 37.6849 4.26286 37.2571C6.60605 37.0942 8.82529 36.1436 10.56 34.56C12 33.12 12.8457 31.2457 13.2571 28.2629C13.6854 24.1902 13.8382 20.0933 13.7143 16C13.8378 11.9029 13.6851 7.80223 13.2571 3.72572C13.0942 1.38252 12.1436 -0.836718 10.56 -2.57143C9.12 -4.01143 7.24572 -4.85714 4.27429 -5.25714C0.197775 -5.68511 -3.90295 -5.83784 -8 -5.71429C-12.0971 -5.83784 -16.1978 -5.68511 -20.2743 -5.25714C-23.2457 -4.82286 -25.1429 -4 -26.56 -2.56ZM12.1829 -4.18286C16 -0.365714 16 5.47429 16 16C16 26.5257 16 32.3543 12.1829 36.1829C8.36572 40.0114 2.51429 40 -8 40C-18.5143 40 -24.3657 40 -28.1829 36.1829C-32 32.3657 -32 26.5143 -32 16C-32 5.48572 -32 -0.365714 -28.1829 -4.18286C-24.3657 -8 -18.5257 -8 -8 -8C2.52572 -8 8.35429 -8 12.1829 -4.18286Z" fill="white"/>
<path fill-rule="evenodd" clip-rule="evenodd" d="M3.98862 0.32C3.21621 0.320135 2.46777 0.588203 1.87093 1.07849C1.27408 1.56878 0.86579 2.25093 0.715683 3.00861C0.565575 3.76629 0.682946 4.55258 1.04778 5.23339C1.41261 5.9142 2.00232 6.44738 2.71633 6.74199C3.43034 7.03661 4.22444 7.07442 4.96321 6.84898C5.70198 6.62354 6.33968 6.14881 6.76755 5.50574C7.19542 4.86267 7.38697 4.09109 7.30953 3.32258C7.23209 2.55406 6.89047 1.83621 6.3429 1.29143C5.71533 0.672262 4.87021 0.323544 3.98862 0.32V0.32Z" fill="white"/>
<path fill-rule="evenodd" clip-rule="evenodd" d="M-7.99995 23.2343C-6.56915 23.2343 -5.17047 22.81 -3.9808 22.0151C-2.79113 21.2202 -1.86389 20.0903 -1.31634 18.7684C-0.768798 17.4465 -0.625537 15.992 -0.904673 14.5887C-1.18381 13.1853 -1.87281 11.8963 -2.88454 10.8846C-3.89627 9.87285 -5.1853 9.18386 -6.58861 8.90472C-7.99193 8.62558 -9.4465 8.76885 -10.7684 9.31639C-12.0903 9.86394 -13.2201 10.7912 -14.015 11.9808C-14.81 13.1705 -15.2342 14.5692 -15.2342 16C-15.2357 16.9504 -15.0497 17.8918 -14.6866 18.7702C-14.3236 19.6486 -13.7908 20.4467 -13.1187 21.1188C-12.4467 21.7908 -11.6486 22.3237 -10.7702 22.6867C-9.89179 23.0497 -8.9504 23.2358 -7.99995 23.2343V23.2343ZM-7.99995 26.6629C-5.89104 26.6629 -3.82949 26.0375 -2.07599 24.8658C-0.32249 23.6942 1.0442 22.0289 1.85124 20.0805C2.65829 18.1321 2.86945 15.9882 2.45802 13.9198C2.04659 11.8514 1.03105 9.95145 -0.460174 8.46022C-1.9514 6.969 -3.85134 5.95346 -5.91973 5.54203C-7.98813 5.1306 -10.1321 5.34176 -12.0805 6.14881C-14.0288 6.95585 -15.6941 8.32254 -16.8658 10.076C-18.0374 11.8295 -18.6628 13.8911 -18.6628 16C-18.6628 18.828 -17.5394 21.5401 -15.5397 23.5398C-13.5401 25.5395 -10.8279 26.6629 -7.99995 26.6629Z" fill="white"/>
</g>
</g>
<defs>
<linearGradient id="paint0_linear_17_55" x1="191.447" y1="897" x2="-30.6931" y2="-1301.28" gradientUnits="userSpaceOnUse">
<stop stop-color="#171717"/>
<stop offset="1" stop-color="#171717" stop-opacity="0.15"/>
</linearGradient>
<clipPath id="clip0_17_55">
<rect width="1920" height="2425" fill="white" transform="translate(-1410 -155)"/>
</clipPath>
<clipPath id="clip1_17_55">
<rect width="48" height="48" fill="white" transform="translate(-32 -8)"/>
</clipPath>
</defs>
</svg>
