<svg width="22" height="22" viewBox="0 0 22 22" fill="none" xmlns="http://www.w3.org/2000/svg">
<rect width="22" height="22" fill="#1E1E1E"/>
<g clip-path="url(#clip0_17_55)">
<rect width="1920" height="2425" transform="translate(-1391 -160)" fill="white"/>
<rect x="-1391" y="-160" width="1920" height="1090" fill="#171717"/>
<path d="M-1391 -198H541V892H-1391V-198Z" fill="url(#paint0_linear_17_55)"/>
<rect x="-170" y="-36" width="697" height="95" fill="#171717"/>
<g clip-path="url(#clip1_17_55)">
<path fill-rule="evenodd" clip-rule="evenodd" d="M-7.56 -7.56C-9 -6.14286 -9.82286 -4.24571 -10.2571 -1.27428C-10.6851 2.80223 -10.8378 6.90295 -10.7143 11C-10.8376 15.0932 -10.6849 19.1902 -10.2571 23.2629C-10.0942 25.6061 -9.14364 27.8253 -7.56 29.56V29.56C-6.13143 31 -4.24571 31.8457 -1.27428 32.2571C2.80223 32.6851 6.90295 32.8378 11 32.7143C15.0932 32.8376 19.1902 32.6849 23.2629 32.2571C25.6061 32.0942 27.8253 31.1436 29.56 29.56C31 28.12 31.8457 26.2457 32.2571 23.2629C32.6854 19.1902 32.8382 15.0933 32.7143 11C32.8378 6.90295 32.6851 2.80223 32.2571 -1.27428C32.0942 -3.61748 31.1436 -5.83672 29.56 -7.57143C28.12 -9.01143 26.2457 -9.85714 23.2743 -10.2571C19.1978 -10.6851 15.0971 -10.8378 11 -10.7143C6.90295 -10.8378 2.80223 -10.6851 -1.27428 -10.2571C-4.24571 -9.82286 -6.14286 -9 -7.56 -7.56ZM31.1829 -9.18286C35 -5.36571 35 0.474286 35 11C35 21.5257 35 27.3543 31.1829 31.1829C27.3657 35.0114 21.5143 35 11 35C0.485715 35 -5.36571 35 -9.18286 31.1829C-13 27.3657 -13 21.5143 -13 11C-13 0.485715 -13 -5.36571 -9.18286 -9.18286C-5.36571 -13 0.474286 -13 11 -13C21.5257 -13 27.3543 -13 31.1829 -9.18286Z" fill="white"/>
<path fill-rule="evenodd" clip-rule="evenodd" d="M22.9886 -4.68C22.2162 -4.67987 21.4678 -4.4118 20.8709 -3.92151C20.2741 -3.43122 19.8658 -2.74907 19.7157 -1.99139C19.5656 -1.23371 19.6829 -0.447424 20.0478 0.233389C20.4126 0.914202 21.0023 1.44738 21.7163 1.74199C22.4303 2.03661 23.2244 2.07442 23.9632 1.84898C24.702 1.62354 25.3397 1.14881 25.7675 0.505739C26.1954 -0.137329 26.387 -0.908908 26.3095 -1.67742C26.2321 -2.44594 25.8905 -3.16379 25.3429 -3.70857C24.7153 -4.32774 23.8702 -4.67646 22.9886 -4.68V-4.68Z" fill="white"/>
<path fill-rule="evenodd" clip-rule="evenodd" d="M11 18.2343C12.4309 18.2343 13.8295 17.81 15.0192 17.0151C16.2089 16.2202 17.1361 15.0903 17.6837 13.7684C18.2312 12.4465 18.3745 10.992 18.0953 9.58866C17.8162 8.18535 17.1272 6.89632 16.1155 5.88459C15.1037 4.87285 13.8147 4.18386 12.4114 3.90472C11.0081 3.62558 9.5535 3.76885 8.2316 4.31639C6.90971 4.86394 5.77987 5.79117 4.98496 6.98085C4.19004 8.17052 3.76576 9.56919 3.76576 11C3.76426 11.9504 3.95035 12.8918 4.31337 13.7702C4.6764 14.6486 5.20921 15.4467 5.88128 16.1188C6.55334 16.7908 7.35144 17.3237 8.22983 17.6867C9.10821 18.0497 10.0496 18.2358 11 18.2343V18.2343ZM11 21.6629C13.109 21.6629 15.1705 21.0375 16.924 19.8658C18.6775 18.6942 20.0442 17.0289 20.8512 15.0805C21.6583 13.1321 21.8694 10.9882 21.458 8.91978C21.0466 6.85139 20.0311 4.95145 18.5398 3.46022C17.0486 1.969 15.1487 0.953456 13.0803 0.542028C11.0119 0.130599 8.86793 0.341759 6.91955 1.14881C4.97116 1.95585 3.30585 3.32254 2.1342 5.07603C0.962555 6.82953 0.337189 8.89109 0.337189 11C0.337189 13.828 1.46059 16.5401 3.46027 18.5398C5.45994 20.5395 8.17208 21.6629 11 21.6629Z" fill="white"/>
</g>
</g>
<defs>
<linearGradient id="paint0_linear_17_55" x1="210.447" y1="892" x2="-11.6931" y2="-1306.28" gradientUnits="userSpaceOnUse">
<stop stop-color="#171717"/>
<stop offset="1" stop-color="#171717" stop-opacity="0.15"/>
</linearGradient>
<clipPath id="clip0_17_55">
<rect width="1920" height="2425" fill="white" transform="translate(-1391 -160)"/>
</clipPath>
<clipPath id="clip1_17_55">
<rect width="48" height="48" fill="white" transform="translate(-13 -13)"/>
</clipPath>
</defs>
</svg>
