<svg width="115" height="115" viewBox="0 0 115 115" fill="none" xmlns="http://www.w3.org/2000/svg">
<path d="M73.1818 73.5227L73.2174 75.2707H31.3636V94.091H81.5455V73.5269L73.1818 73.5227Z" fill="#FA743E"/>
<path d="M47.8024 75.2707C47.8024 75.2707 49.5796 79.5843 55.2251 79.5843C60.8706 79.5843 62.4387 75.2707 62.4387 75.2707L62.3885 67.1162L47.8024 66.9071V75.2707Z" fill="#F3D2A2"/>
<path d="M47.8421 71.1515C50.0543 73.6753 52.1264 74.3088 55.1122 74.3088C58.0938 74.3088 60.1847 73.6732 62.399 71.1515V63.802H47.8442V71.1515H47.8421Z" fill="#E2C196"/>
<path d="M61.8721 30.1488C58.3886 29.0218 50.1901 29.3292 48.1411 31.993C42.8134 32.0955 36.5616 36.9108 35.742 43.2651C34.9307 49.5546 36.7372 52.4735 37.3812 57.2031C38.1089 62.56 41.1219 64.2746 43.5306 64.9917C46.9952 69.5687 50.6773 69.3722 56.8601 69.3722C68.9351 69.3722 74.6851 61.2929 75.1953 47.5703C75.5006 39.2694 70.6309 32.9841 61.8721 30.1488Z" fill="#FFE51E"/>
<path d="M68.7783 48.1558C67.6095 46.5374 66.1145 45.2348 62.8339 44.7748C64.0633 45.3393 65.2426 47.286 65.3952 48.3607C65.55 49.4375 65.7026 50.3073 64.7282 49.2326C60.8287 44.9212 56.5821 46.619 52.3731 43.9865C49.4332 42.1465 48.5383 40.1121 48.5383 40.1121C48.5383 40.1121 48.1787 42.8282 43.723 45.5944C42.4308 46.3973 40.8898 48.183 40.0346 50.8196C39.4199 52.7161 39.6102 54.4055 39.6102 57.2952C39.6102 65.7299 46.5603 72.8202 55.1352 72.8202C63.71 72.8202 70.6602 65.6672 70.6602 57.2952C70.6602 52.0512 70.1102 50 68.7783 48.1558Z" fill="#F3D2A2"/>
<path d="M55.1143 68.0926C50.1044 68.0926 48.5655 66.7962 48.3063 66.5348C47.8421 66.0644 47.8421 65.3012 48.3063 64.8307C48.7579 64.3749 49.4814 64.3645 49.9497 64.7889C50.0438 64.8558 51.2607 65.6838 55.1143 65.6838C59.1184 65.6838 60.2704 64.7931 60.283 64.7826C60.7493 64.3164 61.4811 64.3373 61.9474 64.8119C62.4136 65.2824 62.3865 66.0665 61.9202 66.5348C61.663 66.7962 60.1262 68.0926 55.1143 68.0926ZM56.8602 61.6086H53.4102C52.9335 61.6086 52.5487 61.2239 52.5487 60.7472C52.5487 60.2705 52.9335 59.8857 53.4102 59.8857H56.8602C57.3369 59.8857 57.7216 60.2705 57.7216 60.7472C57.7216 61.2239 57.3369 61.6086 56.8602 61.6086Z" fill="#C1694F"/>
<path d="M48.2352 55.5722C47.2817 55.5722 46.5102 54.8007 46.5102 53.8472V52.1222C46.5102 51.1688 47.2817 50.3972 48.2352 50.3972C49.1886 50.3972 49.9602 51.1688 49.9602 52.1222V53.8472C49.9602 54.7986 49.1866 55.5722 48.2352 55.5722ZM62.0352 55.5722C61.0817 55.5722 60.3102 54.8007 60.3102 53.8472V52.1222C60.3102 51.1688 61.0817 50.3972 62.0352 50.3972C62.9886 50.3972 63.7602 51.1688 63.7602 52.1222V53.8472C63.7602 54.7986 62.9866 55.5722 62.0352 55.5722Z" fill="#662113"/>
<path d="M31.1441 48.5196C31.1441 48.5196 23.1276 51.426 22.333 61.5271C22.333 61.5271 17.3148 51.4552 21.2416 40.3065L31.1441 48.5196ZM60.743 31.3156C60.743 31.3156 54.9763 25.0324 45.3477 28.1855C45.3477 28.1855 52.7118 19.6776 64.515 19.0127L60.743 31.3156ZM80.0212 52.9774C80.0212 52.9774 84.1445 45.5108 78.0913 37.3855C78.0913 37.3855 88.4998 41.6635 92.8845 52.6408L80.0212 52.9774Z" fill="#D1D3D4"/>
<path d="M28.4426 49.1072C32.4844 49.1072 35.7608 45.8307 35.7608 41.789C35.7608 37.7473 32.4844 34.4708 28.4426 34.4708C24.4009 34.4708 21.1245 37.7473 21.1245 41.789C21.1245 45.8307 24.4009 49.1072 28.4426 49.1072Z" fill="#5C913B"/>
<path d="M65.8971 33.4546C69.9388 33.4546 73.2153 30.1781 73.2153 26.1364C73.2153 22.0947 69.9388 18.8182 65.8971 18.8182C61.8554 18.8182 58.5789 22.0947 58.5789 26.1364C58.5789 30.1781 61.8554 33.4546 65.8971 33.4546Z" fill="#BE1931"/>
<path d="M86.5552 63.4675C90.597 63.4675 93.8734 60.1911 93.8734 56.1494C93.8734 52.1076 90.597 48.8312 86.5552 48.8312C82.5135 48.8312 79.2371 52.1076 79.2371 56.1494C79.2371 60.1911 82.5135 63.4675 86.5552 63.4675Z" fill="#3B88C3"/>
<path d="M87.078 67.9296C86.8459 66.8046 85.7524 66.0812 84.6337 66.3112L80.3327 67.2124H76.5503C74.773 67.2124 73.3345 68.6656 73.3345 70.4637V73.7088H81.3782C83.1137 73.7088 84.5208 72.3163 84.5815 70.5808L85.1523 70.4616H86.204C86.204 70.3383 86.158 70.2254 86.1308 70.1083C86.8459 69.6587 87.2537 68.8098 87.078 67.9296Z" fill="#E2C196"/>
<path d="M94.2477 68.8348C94.2477 67.9378 93.5285 67.2123 92.6377 67.2123L82.9861 68.8348H74.9424C74.0516 68.8348 73.3324 69.5646 73.3324 70.4616L73.1818 73.7046L76.5503 73.7087H82.9861L92.6377 70.4616C92.6398 70.4616 94.2477 69.7339 94.2477 68.8348Z" fill="#F3D2A2"/>
<path d="M25.99 75.7662C26.22 74.6413 27.3135 73.9179 28.4322 74.1479L32.7352 75.049H36.5156C38.2929 75.049 39.7335 76.5022 39.7335 78.3004V81.5455H31.6877C29.9522 81.5455 28.5451 80.153 28.4844 78.4175L27.9136 78.2983H26.8619C26.8619 78.175 26.9079 78.062 26.9372 77.945C26.22 77.4954 25.8122 76.6465 25.99 75.7662Z" fill="#E2C196"/>
<path d="M18.8182 76.6716C18.8182 75.7746 19.5374 75.0491 20.4261 75.0491L30.0798 76.6716H38.1235C39.0122 76.6716 39.7315 77.4013 39.7315 78.2983V81.5455H30.0798L20.4261 78.2983C20.4261 78.2983 18.8182 77.5707 18.8182 76.6716Z" fill="#F3D2A2"/>
<path d="M39.7273 81.5456H41.8182V94.091H39.7273V81.5456ZM71.0909 75.2728H73.1818V94.091H71.0909V75.2728Z" fill="#DD551F"/>
</svg>
