<svg width="115" height="115" viewBox="0 0 115 115" fill="none" xmlns="http://www.w3.org/2000/svg">
<path d="M96.1818 85.7273C96.1818 90.3461 92.437 94.091 87.8182 94.091H29.2727C24.6539 94.091 20.9091 90.3461 20.9091 85.7273V27.1819C20.9091 22.5631 24.6539 18.8182 29.2727 18.8182H87.8182C92.437 18.8182 96.1818 22.5631 96.1818 27.1819V85.7273Z" fill="#292F33"/>
<path d="M92 56.4545C92 74.9319 77.0228 89.9091 58.5455 89.9091C40.0702 89.9091 25.0909 74.9319 25.0909 56.4545C25.0909 37.9793 40.0702 23 58.5455 23C77.0228 23 92 37.9793 92 56.4545ZM58.5455 50.8781C55.4655 50.8781 52.969 53.3746 52.969 56.4545C52.969 59.5345 55.4655 62.031 58.5455 62.031C61.6254 62.031 64.1219 59.5345 64.1219 56.4545C64.1219 53.3746 61.6254 50.8781 58.5455 50.8781Z" fill="#FFD983"/>
<path d="M49.7866 55.4823C50.0146 53.429 50.8969 51.5765 52.2811 50.1923L37.5172 35.4263C32.8628 40.0806 29.7557 46.2718 28.9967 53.1718L49.7866 55.4823ZM67.3043 57.4268C67.0764 59.478 66.1919 61.3305 64.8077 62.7168L79.5737 77.4828C84.2281 72.8284 87.3352 66.6373 88.0942 59.7373L67.3043 57.4268Z" fill="#FFAC33"/>
<path d="M59.5261 65.2134L61.8491 85.9991C68.7386 85.2359 74.9235 82.1309 79.5716 77.4807L64.8056 62.7147C63.4235 64.0989 61.5731 64.9855 59.5261 65.2134ZM57.6233 47.6916L55.4321 26.8807C48.4631 27.6063 42.2092 30.7343 37.5151 35.4263L52.2811 50.1923C53.6778 48.7956 55.5513 47.909 57.6233 47.6916Z" fill="#FFE8B6"/>
<path d="M96.1818 62.7273C96.1818 65.0356 94.3084 66.9091 92 66.9091H69C66.6916 66.9091 64.8182 65.0356 64.8182 62.7273V50.1818C64.8182 47.8735 66.6916 46 69 46H92C94.3084 46 96.1818 47.8735 96.1818 50.1818V62.7273Z" fill="#F5F8FA"/>
</svg>
