<svg width="317" height="1345" viewBox="0 0 317 1345" fill="none" xmlns="http://www.w3.org/2000/svg">
<path d="M296.212 0C305.881 64.2422 315.629 128.938 316.886 194.653C318.066 260.368 310.205 327.896 286.779 384.32C266.419 433.267 235.76 471.109 209.033 513.144C98.8212 686.496 57.2364 944.825 102.83 1170.52C103.302 1173.01 103.852 1175.51 104.403 1178H-77.1874C-125.297 950.603 -84.0265 688.536 27.443 513.258C54.1706 471.223 82.4703 433.267 102.83 384.32C126.256 327.896 136.476 260.481 135.296 194.766C134.117 128.938 124.37 64.2422 114.622 0H296.212Z" fill="url(#paint0_linear_36_2)"/>
<defs>
<linearGradient id="paint0_linear_36_2" x1="110" y1="0" x2="110" y2="1178" gradientUnits="userSpaceOnUse">
<stop stop-color="#FFD700"/>
<stop offset="0.640087" stop-color="#0066CC"/>
</linearGradient>
</defs>
</svg>
