<?xml version="1.0" encoding="UTF-8"?>
<!-- Generated by Pixelmator Pro 2.4.5 -->
<svg width="760" height="259" viewBox="0 0 760 259" xmlns="http://www.w3.org/2000/svg" xmlns:xlink="http://www.w3.org/1999/xlink">
    <path id="Path" fill="#ffd500" stroke="none" d="M 636.73999 2 C 633.695007 5.455994 632.015991 9.903992 632.02002 14.51001 C 632.190002 25.049988 633.47998 35.570007 633.590027 46.089966 C 633.830017 55.910034 630.890015 65.089966 627.320007 74.089996 C 626.140015 76.570007 624.849976 79.01001 623.559998 81.440002 L 619.789978 80.679993 C 618.263 80.365997 616.906006 79.497986 615.979004 78.244019 C 615.052979 76.98999 614.622986 75.437988 614.771973 73.885986 C 614.921021 72.333984 615.638 70.891968 616.786011 69.837036 C 617.934021 68.781982 619.43103 68.187988 620.98999 68.169983 L 622.369995 68.320007 L 619.299988 42.549988 C 618.812988 37.041016 617.174988 31.695984 614.491028 26.859985 C 611.807007 22.025024 608.138 17.807007 603.719971 14.47998 C 602.223022 13.346008 600.645996 12.322998 599 11.419983 L 599 102.899994 L 620.049988 102.899994 C 621.593994 111.295013 626.179993 118.825012 632.929993 124.049988 C 634.508972 125.144012 635.822021 126.57901 636.77002 128.25 C 637.710999 126.576996 639.020996 125.140991 640.599976 124.049988 C 647.336975 118.830994 651.921021 111.317993 653.47998 102.940002 L 674.47998 102.940002 L 674.47998 11.460022 C 672.833008 12.360962 671.255005 13.384033 669.76001 14.52002 C 665.338989 17.843018 661.666016 22.059998 658.981995 26.896973 C 656.297974 31.733032 654.661987 37.080017 654.179993 42.589966 L 651.159973 68.369995 L 652.539978 68.219971 C 654.099976 68.235962 655.598999 68.828003 656.747986 69.882019 C 657.89801 70.936035 658.617004 72.378998 658.767029 73.931 C 658.916992 75.484009 658.487976 77.036987 657.562012 78.291992 C 656.63501 79.546997 655.278015 80.415985 653.75 80.730011 L 649.969971 81.48999 C 648.679993 79.059998 647.390015 76.630005 646.210022 74.140015 C 642.640015 65.140015 639.700012 55.929993 639.940002 46.140015 C 640.049988 35.589966 641.340027 25.080017 641.51001 14.559998 C 641.51001 9.955017 639.83197 5.507019 636.789978 2.049988 L 636.73999 2 Z M 605.27002 24.640015 C 609.452026 29.554016 612.101013 35.585999 612.890015 41.98999 L 615.400024 63.23999 C 613.784973 64.049011 612.361023 65.192993 611.224976 66.596985 C 610.088013 68.000977 609.265015 69.632019 608.809998 71.380005 L 605.25 71.380005 L 605.25 24.650024 L 605.27002 24.640015 Z M 668.210022 24.640015 L 668.210022 71.369995 L 664.650024 71.369995 C 664.195007 69.620972 663.372009 67.988037 662.236023 66.583008 C 661.098999 65.177002 659.676025 64.031006 658.059998 63.219971 L 660.580017 41.969971 C 661.374023 35.56897 664.018982 29.539001 668.190002 24.619995 L 668.210022 24.640015 Z M 636.73999 67.369995 C 638.411011 72.863007 640.72998 78.136993 643.650024 83.079987 C 640.929993 83.907013 638.521973 85.533997 636.73999 87.75 C 634.95697 85.535004 632.549988 83.90799 629.830017 83.079987 C 632.75 78.136993 635.070007 72.863007 636.73999 67.369995 Z M 605.27002 77.700012 L 608.830017 77.700012 C 609.388 79.838989 610.495972 81.794006 612.04303 83.372986 C 613.590027 84.951996 615.52301 86.098999 617.650024 86.700012 L 620.650024 87.390015 C 619.81897 90.403015 619.39801 93.514008 619.400024 96.640015 L 605.26001 96.640015 L 605.26001 77.710022 L 605.27002 77.700012 Z M 664.659973 77.700012 L 668.219971 77.700012 L 668.219971 96.649994 L 654.059998 96.649994 C 654.059998 93.524994 653.640015 90.412994 652.809998 87.399994 L 655.809998 86.709991 C 657.937988 86.112 659.870972 84.966003 661.416992 83.385986 C 662.963013 81.807007 664.067017 79.850006 664.619995 77.710022 L 664.659973 77.700012 Z M 626.830017 88.850006 C 628.70697 89.117004 630.424988 90.053986 631.666992 91.487 C 632.908997 92.920013 633.59198 94.753998 633.590027 96.649994 L 625.719971 96.649994 C 625.723999 94.010986 626.098022 91.38501 626.830017 88.850006 L 626.830017 88.850006 Z M 646.650024 88.850006 C 647.375 91.386993 647.744995 94.011993 647.75 96.649994 L 639.890015 96.649994 C 639.888 94.753998 640.570984 92.920013 641.812988 91.487 C 643.054993 90.053986 644.771973 89.117004 646.650024 88.850006 L 646.650024 88.850006 Z M 626.47998 102.970001 L 633.630005 102.970001 L 633.630005 116.26001 C 630.103027 112.548004 627.633972 107.959015 626.47998 102.970001 L 626.47998 102.970001 Z M 639.929993 102.970001 L 647.080017 102.970001 C 645.935974 107.963013 643.466003 112.553986 639.929993 116.26001 L 639.929993 102.970001 Z"/>
    <path id="path1" fill="#ffffff" stroke="none" d="M 276.130005 188.720001 L 245.050003 188.720001 L 245.050003 141.470001 L 221.75 141.470001 L 221.75 259.269989 L 245.050003 259.269989 L 245.050003 212.019989 L 276.130005 212.019989 L 276.130005 259.269989 L 299.440002 259.269989 L 299.440002 212.019989 L 299.440002 188.720001 L 299.440002 141.470001 L 276.130005 141.470001 L 276.130005 188.720001 Z"/>
    <path id="path2" fill="#ffffff" stroke="none" d="M 123 141.470001 L 123 164.769989 L 123 188.720001 L 123 212.019989 L 123 235.970001 L 123 257.369995 L 123 259.269989 L 199.199997 259.269989 L 199.199997 235.970001 L 146.059998 235.970001 L 146.059998 212.019989 L 199.199997 212.019989 L 199.199997 188.720001 L 146.059998 188.720001 L 146.059998 164.769989 L 199.199997 164.769989 L 199.199997 141.470001 L 146.059998 141.470001 L 123 141.470001 Z"/>
    <path id="path3" fill="#ffffff" stroke="none" d="M 322 141.480011 L 322 164.790009 L 322 188.730011 L 322 212.040009 L 322 235.980011 L 322 257.380005 L 322 259.279999 L 398.200012 259.279999 L 398.200012 235.980011 L 345.059998 235.980011 L 345.059998 212.040009 L 398.200012 212.040009 L 398.200012 188.730011 L 345.059998 188.730011 L 345.059998 164.790009 L 398.200012 164.790009 L 398.200012 141.480011 L 345.059998 141.480011 L 322 141.480011 Z"/>
    <path id="path4" fill="#ffffff" stroke="none" d="M 444 141.470001 L 420.690002 141.470001 L 420.690002 259.269989 L 444 259.269989 L 444 141.470001 Z"/>
    <path id="path5" fill="#ffffff" stroke="none" d="M 467.309998 105.559998 L 444 105.559998 L 444 128.869995 L 467.309998 128.869995 L 467.309998 105.559998 Z"/>
    <path id="path6" fill="#ffffff" stroke="none" d="M 421.070007 105.559998 L 397.76001 105.559998 L 397.76001 128.869995 L 421.070007 128.869995 L 421.070007 105.559998 Z"/>
    <path id="path7" fill="#ffffff" stroke="none" d="M 616.059998 141.540009 C 615.265991 141.455994 614.468018 141.412994 613.669983 141.410004 L 588.669983 141.410004 C 582.487976 141.410004 576.559021 143.865997 572.187012 148.237 C 567.815979 152.609009 565.359985 158.537994 565.359985 164.720001 L 565.359985 164.720001 L 565.359985 173.529999 C 565.359009 173.567993 565.36499 173.605011 565.377991 173.640015 C 565.392029 173.675995 565.411987 173.708008 565.437988 173.734985 C 565.465027 173.761993 565.495972 173.78299 565.531006 173.798004 C 565.565002 173.812988 565.60199 173.820007 565.640015 173.820007 L 587.75 173.820007 C 587.827026 173.820007 587.901001 173.790009 587.955017 173.734985 C 588.01001 173.681 588.039978 173.606995 588.039978 173.529999 L 588.039978 168.369995 C 588.039978 167.669006 588.317993 166.997009 588.812988 166.5 C 589.307007 166.002991 589.979004 165.722992 590.679993 165.720001 L 611.130005 165.720001 C 611.825989 165.720001 612.492981 165.996002 612.986023 166.487 C 613.479004 166.977997 613.757019 167.644012 613.76001 168.339996 L 613.76001 189.859985 C 613.757019 189.934998 613.726013 190.006989 613.671997 190.05899 C 613.617981 190.110992 613.544983 190.140015 613.469971 190.140015 L 588.960022 190.140015 C 582.703979 190.140015 576.703003 192.626007 572.278992 197.049011 C 567.85498 201.472992 565.369995 207.473999 565.369995 213.730011 L 565.369995 235.959991 C 565.369995 242.088013 567.78302 247.968994 572.088013 252.330994 C 576.393005 256.691986 582.242981 259.181 588.369995 259.26001 L 636.75 259.26001 C 636.825012 259.257996 636.895996 259.226013 636.948975 259.171997 C 637.000977 259.118011 637.030029 259.045013 637.030029 258.970001 L 637.030029 164.720001 C 637.028992 158.945007 634.882996 153.375 631.008972 149.09201 C 627.133972 144.80899 621.807007 142.118011 616.059998 141.540009 Z M 613.75 231.890015 C 613.75 232.70401 613.427002 233.484985 612.851013 234.061005 C 612.275024 234.636993 611.494019 234.959991 610.679993 234.959991 L 591.75 234.959991 C 591.346985 234.960999 590.947021 234.882996 590.573975 234.729004 C 590.200989 234.575012 589.862 234.348999 589.575989 234.063995 C 589.291016 233.778992 589.065002 233.440002 588.911011 233.066986 C 588.757019 232.692993 588.679016 232.294006 588.679993 231.890015 L 588.679993 217.420013 C 588.68103 217.018005 588.762024 216.621002 588.916992 216.25 C 589.072021 215.878998 589.297974 215.542999 589.583008 215.259003 C 589.867981 214.976013 590.20697 214.752014 590.578003 214.598999 C 590.950012 214.446991 591.348022 214.368988 591.75 214.369995 L 610.650024 214.369995 C 611.052979 214.369995 611.452026 214.450012 611.825012 214.604004 C 612.197021 214.757996 612.536011 214.984009 612.820984 215.269012 C 613.106018 215.553986 613.33197 215.893005 613.486023 216.265015 C 613.640991 216.638 613.719971 217.036987 613.719971 217.440002 L 613.75 231.890015 Z"/>
    <path id="path8" fill="#ffffff" stroke="none" d="M 538.179993 236.299988 L 538.179993 141.600006 L 537.75 141.600006 L 537.75 141.420013 L 475.640015 141.420013 L 468.200012 235.859985 L 468.200012 236.299988 L 458.279999 236.299988 L 458.279999 259.369995 L 474.5 259.369995 L 474.5 259.25 L 514.909973 259.25 L 514.909973 259.369995 L 554.429993 259.369995 L 554.429993 236.269989 L 538.179993 236.269989 L 538.179993 236.299988 Z M 514.869995 235.859985 L 491.25 235.859985 L 497.049988 164.859985 L 514.869995 164.859985 L 514.869995 235.859985 Z"/>
</svg>
